<?xml version="1.0" encoding="UTF-8"?>
<svg width="1187px" height="403px" viewBox="0 0 1187 403" version="1.1" xmlns="http://www.w3.org/2000/svg" xmlns:xlink="http://www.w3.org/1999/xlink">
    <!-- Generator: Sketch 51.3 (57544) - http://www.bohemiancoding.com/sketch -->
    <title>Artboard</title>
    <desc>Created with Sketch.</desc>
    <defs></defs>
    <g id="Artboard" stroke="none" stroke-width="1" fill="none" fill-rule="evenodd">
        <g id="Group-3-Copy" transform="translate(48.000000, 55.000000)">
            <rect id="Rectangle-4" stroke="#1B4077" x="808.5" y="235.5" width="19" height="19"></rect>
            <rect id="Rectangle-4-Copy" fill="#1B4077" x="808" y="274" width="20" height="20"></rect>
            <text id="COMMUTING" font-family="Karla-Regular, Karla" font-size="14" font-weight="normal" fill="#6E6E6E">
                <tspan x="839" y="289">COMMUTING</tspan>
            </text>
            <text id="WALKING" font-family="Karla-Regular, Karla" font-size="14" font-weight="normal" fill="#6E6E6E">
                <tspan x="839" y="250">WALKING</tspan>
            </text>
            <g id="Group-4">
                <polyline id="Stroke-1" stroke="#1B4077" stroke-linecap="square" stroke-linejoin="bevel" points="795 67.1447005 794.281106 68.1511521 790.542857 69.4451613 786.229493 70.4516129 787.523502 77.0654378 778.752995 76.3465438 772.139171 75.3400922 766.388018 73.4709677 761.499539 72.3207373 759.199078 71.7456221 756.754839 70.7391705 755.604608 70.1640553 753.591705 68.4387097 748.703226 64.8442396 745.540092 62.6875576 743.527189 62.6875576 741.082949 63.118894 736.769585 63.4064516 724.404608 63.2626728 720.235023 63.118894 711.464516 61.9686636 701.112442 59.9557604 694.21106 58.80553 690.041475 58.2304147 686.159447 57.7990783 680.120737 57.9428571 679.83318 55.4986175 678.970507 52.6230415 678.539171 51.7603687 677.676498 51.0414747 677.101382 50.035023 675.519816 47.7345622 673.219355 45.1465438 670.2 42.2709677 666.317972 37.9576037 665.023963 36.5198157 657.691244 28.8995392 656.109677 27.1741935 654.815668 25.1612903 653.952995 23.4359447 650.933641 10.0645161 649.927189 5.46359447 648.776959 1.00645161 648.63318 0 645.470046 1.86912442 643.457143 3.16313364 640.15023 5.75115207 635.980645 8.33917051 634.399078 9.48940092 629.654378 13.5152074 622.034101 20.2728111 612.688479 28.0368664 606.074654 33.9317972 595.003687 43.4211982 592.990783 45.2903226 592.128111 46.2967742 591.840553 47.3032258 590.258986 49.1723502 589.540092 49.6036866 587.527189 52.1917051 586.952074 53.3419355 585.370507 57.0801843 584.651613 59.2368664 583.78894 62.5437788 583.645161 64.4129032 583.501382 69.0138249 583.501382 72.3207373 583.357604 78.9345622 583.357604 85.4046083 583.070046 89.4304147 583.645161 91.443318 583.501382 93.3124424 583.501382 100.501382 577.462673 100.213825 576.6 100.501382 562.941014 98.3447005 558.915207 98.6322581 552.013825 99.7824885 549.282028 100.070046 546.694009 99.7824885 542.95576 99.2073733 534.472811 99.4949309 529.584332 99.3511521 526.708756 99.6387097 520.526267 100.932719 517.075576 101.364055 510.174194 101.795392 507.154839 102.226728 501.259908 103.520737 497.234101 103.520737 495.077419 103.376959 492.058065 102.945622 487.888479 102.226728 474.804608 101.220276 467.184332 100.932719 464.308756 100.932719 461.001843 101.220276 453.381567 102.370507 445.473733 103.23318 439.578802 104.095853 430.520737 105.964977 427.645161 106.396313 425.919816 106.540092 421.75023 106.396313 418.15576 105.821198 413.554839 103.952074 409.241475 102.801843 396.732719 100.78894 377.610138 97.19447 370.996313 96.1880184 368.408295 95.9004608 365.964055 95.756682 362.369585 95.756682 359.206452 96.0442396 355.180645 96.9069124 352.305069 97.3382488 349.429493 97.4820276 326.424885 96.0442396 323.117972 96.0442396 320.673733 96.1880184 316.072811 96.7631336 312.765899 96.3317972 309.171429 95.4691244 298.675576 94.6064516 289.473733 94.1751152 282.284793 91.5870968 273.945622 90.00553 263.737327 88.8552995 262.011982 88.4239631 259.567742 87.5612903 257.554839 86.5548387 255.541935 85.8359447 250.365899 84.2543779 247.346544 83.8230415 243.895853 83.6792627 240.58894 83.9668203 236.563134 85.1170507 228.799078 87.8488479 227.217512 88.1364055 224.773272 87.9926267 216.146544 85.1170507 214.996313 84.8294931 210.251613 83.1041475 209.245161 82.5290323 206.369585 81.5225806 180.345622 74.764977 172.15023 72.4645161"></polyline>
                <text id="Starting-point" font-family="Karla-Regular, Karla" font-size="14" font-weight="normal" fill="#1B4077">
                    <tspan x="125.053" y="16">Starting point</tspan>
                </text>
                <text id="Arrival" font-family="Karla-Regular, Karla" font-size="14" font-weight="normal" fill="##1B4077">
                    <tspan x="774" y="16">Arrival</tspan>
                </text>
                <text id="34,55-min." font-family="Karla-Regular, Karla" font-size="14" font-weight="normal" fill="#1B4077">
                    <tspan x="1010" y="72">34,55 min.</tspan>
                </text>
                <text id="Routing-System-that" font-family="Karla-Regular, Karla" font-size="14" font-weight="normal" fill="#1B4077">
                    <tspan x="50.982" y="72">Routing System </tspan>
                    <tspan x="0.638" y="89">that generated the path</tspan>
                </text>
                <rect id="Rectangle-2" stroke="#1B4077" x="795.5" y="64.5" width="39" height="9"></rect>
                <rect id="Rectangle-2-Copy" fill="#1B4077" x="829" y="64" width="75" height="10"></rect>
                <rect id="Rectangle-2-Copy-2" stroke="#1B4077" x="893.5" y="64.5" width="85" height="9"></rect>
                <circle id="Oval" fill="#1B4077" cx="170.5" cy="34.5" r="2.5"></circle>
                <circle id="Oval-Copy" fill="#1B4077" cx="795.5" cy="34.5" r="2.5"></circle>
                <rect id="Rectangle-5" fill="#1B4077" transform="translate(265.363961, 89.363961) rotate(45.000000) translate(-265.363961, -89.363961) " x="260.863961" y="84.863961" width="9" height="9"></rect>
                <path d="M170.416667,35.0836735 L170.416667,75.9163265" id="Path-2-Copy-6" stroke="#1B4077"></path>
                <path d="M795.416667,35.0836735 L795.416667,75.9163265" id="Path-2-Copy-7" stroke="#1B4077"></path>
            </g>
            <text id="This-path-represent" font-family="Karla-Regular, Karla" font-size="18" font-weight="normal" fill="#1B4077">
                <tspan x="3" y="166">This path represent one route in the city of Hamburg generated by one routing system.</tspan>
                <tspan x="3" y="188">The dot movement represent the time needed to reach the Arrival point from the start with </tspan>
                <tspan x="3" y="210">different means of transportations and in different hours.</tspan>
            </text>
            <text id="This-little-barchart" font-family="Karla-Regular, Karla" font-size="18" font-weight="normal" fill="#1B4077">
                <tspan x="808" y="166">This little barchart will show the </tspan>
                <tspan x="808" y="188">total amount of time spent </tspan>
                <tspan x="808" y="210">walking or commuting.</tspan>
            </text>
            <path d="M3,130 L794,130" id="Path-4" stroke="#1B4077"></path>
            <path d="M1090.5,129.208333 L809,129.208333" id="Path-4-Copy" stroke="#1B4077"></path>
        </g>
    </g>
</svg>
